<?xml version="1.0" encoding="utf-8"?>
<!-- Generator: Adobe Illustrator 24.3.0, SVG Export Plug-In . SVG Version: 6.00 Build 0)  -->
<svg version="1.1" id="Layer_1" xmlns="http://www.w3.org/2000/svg" xmlns:xlink="http://www.w3.org/1999/xlink" x="0px" y="0px"
	 viewBox="0 0 660.13 278.39" style="enable-background:new 0 0 660.13 278.39;" xml:space="preserve">
<style type="text/css">
	.st0{fill:#E8B47C;}
	.st1{fill:#F96F2B;}
	.st2{fill:#184B87;}
	.st3{fill:#F38FAD;}
	.st4{fill:#F2203A;}
	.st5{fill:#E0DAEF;}
	.st6{fill:#4079BF;}
	.st7{fill:#CCCCCC;}
	.st8{fill:#F2E3C7;}
	.st9{fill:#3CB44F;}
	.st10{fill:#0D0D0D;}
	.st11{fill:#C9112F;}
	.st12{fill:#AA202B;}
	.st13{fill:#1D1D1D;}
	.st14{fill:#1C1D1D;}
	.st15{fill:#474747;}
	.st16{fill:#565656;}
	.st17{fill:#353535;}
	.st18{fill:#AEB0AF;}
	.st19{fill:#8A8D8C;}
	.st20{fill:#ADAEAE;}
	.st21{fill:#AFAFB0;}
	.st22{fill:#898B8B;}
	.st23{fill:#888B8A;}
	.st24{fill:#ACACAE;}
	.st25{fill:#ABADAE;}
	.st26{fill:#8B8C8D;}
	.st27{fill:#8B8E8E;}
	.st28{fill:#100F0E;}
	.st29{fill:#FFFFFF;}
	.st30{fill:#FFFFFC;}
	.st31{fill:#D8D8D8;}
	.st32{fill:#D4D5D5;}
	.st33{fill:#FCFCFB;}
	.st34{fill:#D4D6D6;}
	.st35{fill:#D9D9D8;}
	.st36{fill:#D7D8D7;}
	.st37{fill:#07080D;}
	.st38{fill:#1C2E5B;}
	.st39{fill:#090B0F;}
	.st40{fill:#0F0D11;}
	.st41{fill:#0B0F11;}
	.st42{fill:#0C0F10;}
	.st43{fill:#1D2D5A;}
	.st44{fill:#1C2F5B;}
	.st45{fill:#1B2E5A;}
	.st46{fill:#0E0F12;}
	.st47{fill:#0E0E11;}
	.st48{fill:#0C1011;}
	.st49{fill:#1D2E5C;}
	.st50{fill:#1B2D59;}
	.st51{fill:#1C2D59;}
	.st52{fill:#1F2E5E;}
	.st53{fill:#1D305E;}
	.st54{fill:#1D2E5B;}
	.st55{fill:#192A53;}
	.st56{fill:#1C2B56;}
	.st57{fill:#1B2D58;}
	.st58{fill:#3272CE;}
	.st59{fill:#1E315F;}
	.st60{fill:#C2C5C9;}
	.st61{fill:#1E2F5D;}
	.st62{fill:#C5C5C8;}
	.st63{fill:#304C80;}
	.st64{fill:#49B06F;}
	.st65{fill:#48B06F;}
	.st66{fill:#D9DDE0;}
	.st67{fill:#CAD6D9;}
	.st68{fill:#4EB171;}
	.st69{fill:#0E0E12;}
	.st70{fill:#0E1311;}
	.st71{fill:#17231C;}
	.st72{fill:#0D1712;}
	.st73{fill:#111B16;}
	.st74{fill:#0D1511;}
	.st75{fill:#141F18;}
	.st76{fill:#C1C7CB;}
	.st77{fill:#C7CBCF;}
	.st78{fill:#C3C7CB;}
	.st79{fill:#0E0D0D;}
	.st80{fill:#C0BEB3;}
	.st81{fill:#C0BDB2;}
	.st82{fill:#F4ECD4;}
	.st83{fill:#F4EDD5;}
	.st84{fill:#DC413A;}
	.st85{fill:#946639;}
	.st86{fill:#DFD0AF;}
	.st87{fill:#DDCEAD;}
	.st88{fill:#DDCDAB;}
	.st89{fill:#976839;}
	.st90{fill:#E0D1AF;}
	.st91{fill:#DDCEAB;}
	.st92{fill:#885E35;}
	.st93{fill:#8E6237;}
	.st94{fill:#DED0B1;}
	.st95{fill:#E6DFC6;}
	.st96{fill:#BBBBB5;}
	.st97{fill:#121110;}
	.st98{fill:#121211;}
	.st99{fill:#121111;}
	.st100{fill:#111010;}
	.st101{fill:#10100F;}
	.st102{fill:#121010;}
	.st103{fill:#131212;}
	.st104{fill:#0E0C0C;}
	.st105{fill:#BFBCB0;}
	.st106{fill:#C0BCB1;}
	.st107{fill:#BCB9AD;}
	.st108{fill:#8D633B;}
	.st109{fill:#785537;}
	.st110{fill:#765336;}
	.st111{fill:#0D0B0B;}
	.st112{fill:#F2E6C9;}
	.st113{fill:#BEBBB0;}
	.st114{fill:#785334;}
	.st115{fill:#765132;}
	.st116{fill:#C1BEB3;}
	.st117{fill:#BAB9B2;}
	.st118{fill:#F0E6CA;}
	.st119{fill:#795334;}
	.st120{fill:#765235;}
	.st121{fill:#C8C4B7;}
	.st122{fill:#B9B8B0;}
	.st123{fill:#0F0D0D;}
	.st124{fill:#0F0F0E;}
	.st125{fill:#100E0E;}
	.st126{fill:#CE7289;}
	.st127{fill:#DC7C8E;}
	.st128{fill:#DD7D91;}
	.st129{fill:#DC7C90;}
	.st130{fill:#D87A8C;}
	.st131{fill:#D47E92;}
	.st132{fill:#9D9C9C;}
	.st133{fill:#848383;}
	.st134{fill:#3C3C3C;}
	.st135{fill:#F0EFEF;}
	.st136{fill:#F1F0F0;}
	.st137{fill:#E9EAE9;}
	.st138{fill:#F2F2F2;}
	.st139{fill:#D9DAD8;}
	.st140{fill:#3A393A;}
	.st141{fill:#F7B9D0;}
	.st142{fill:#383837;}
	.st143{fill:#131110;}
	.st144{fill:#1B1A1A;}
	.st145{fill:#100D0D;}
	.st146{fill:#E6E4E4;}
	.st147{fill:#D17688;}
	.st148{fill:#F09BAE;}
	.st149{fill:#DB7A8E;}
	.st150{fill:#79797B;}
	.st151{fill:#0F0E0E;}
	.st152{fill:#9D82C4;}
	.st153{fill:#101012;}
	.st154{fill:#0C0E10;}
	.st155{fill:#957BB3;}
	.st156{fill:#977AAE;}
	.st157{fill:#E5E5E5;}
	.st158{fill:#FBFBF8;}
	.st159{fill:#3E73B8;}
	.st160{fill:#1D4A90;}
	.st161{fill:#0D0E12;}
	.st162{fill:#D2D4D4;}
	.st163{fill:#CF4F27;}
	.st164{fill:#131011;}
	.st165{fill:#CE4F27;}
	.st166{fill:#161112;}
	.st167{fill:#D04F27;}
	.st168{fill:#CD5427;}
	.st169{fill:#DAAA70;}
	.st170{fill:#B67637;}
	.st171{fill:#BA7738;}
	.st172{fill:#D7D8D8;}
	.st173{fill:#D5D6D5;}
	.st174{fill:#D7D8D9;}
	.st175{fill:#D6D6D5;}
	.st176{fill:#FAFAF9;}
	.st177{fill:#D5D7D7;}
	.st178{fill:#F9F9FA;}
	.st179{fill:#D4D3D3;}
	.st180{fill:#DADCDC;}
	.st181{fill:#141111;}
	.st182{fill:#D7D9D7;}
	.st183{fill:#151211;}
	.st184{fill:#F7B618;}
	.st185{fill:#BB8B51;}
	.st186{fill:#F7D270;}
	.st187{fill:#543017;}
	.st188{fill:#5D371B;}
	.st189{fill:#0C0C0B;}
	.st190{fill:#070707;}
	.st191{fill:#554A3A;}
	.st192{fill:#CFB692;}
	.st193{fill:#F1EFDF;}
	.st194{fill:#947E5F;}
	.st195{fill:#E3DCC1;}
	.st196{fill:#947E61;}
	.st197{fill:#E7DDC2;}
	.st198{fill:#CBB38F;}
	.st199{fill:#EFECDB;}
	.st200{fill:#978165;}
	.st201{fill:#917B5F;}
	.st202{fill:#262325;}
	.st203{fill:#070807;}
	.st204{fill:#564D3C;}
	.st205{fill:#393838;}
	.st206{fill:#363737;}
	.st207{fill:#E3DBC0;}
	.st208{fill:#DDB482;}
	.st209{fill:#E0D5B8;}
	.st210{fill:#E7DCC0;}
	.st211{fill:#584E3D;}
	.st212{fill:#F0F0DF;}
	.st213{fill:#F0EFDF;}
	.st214{fill:#0E0B0C;}
	.st215{fill:#0D0C0B;}
	.st216{fill:#110F12;}
	.st217{fill:#272121;}
	.st218{fill:#140E0D;}
	.st219{fill:#130E0C;}
	.st220{fill:#0E0F0E;}
	.st221{fill:#110D0B;}
	.st222{fill:#241C1A;}
	.st223{fill:#2D231F;}
	.st224{fill:#362B25;}
	.st225{fill:#130A0B;}
	.st226{fill:#0E0D0E;}
	.st227{fill:#0A0707;}
	.st228{fill:#2E2520;}
	.st229{fill:#0E0C0B;}
	.st230{fill:#130A0A;}
	.st231{fill:#231B1A;}
	.st232{fill:#2D241F;}
	.st233{fill:#362A25;}
	.st234{fill:#140F0D;}
	.st235{fill:#382C28;}
	.st236{fill:#392B27;}
	.st237{fill:#272321;}
	.st238{fill:#281F1C;}
	.st239{fill:#0B0706;}
	.st240{fill:#120E0C;}
	.st241{fill:#201B19;}
	.st242{fill:#434140;}
	.st243{fill:#656562;}
	.st244{fill:#DFE3DD;}
	.st245{fill:#A7ACA5;}
	.st246{fill:#A47E53;}
	.st247{fill:#4E2F16;}
	.st248{fill:#573318;}
	.st249{fill:#52351D;}
	.st250{fill:#0D2949;}
	.st251{fill:#090A0C;}
	.st252{fill:#0E1A2D;}
	.st253{fill:#0B0C10;}
	.st254{fill:#F4C238;}
	.st255{fill:#F5C137;}
	.st256{fill:#F1F1F1;}
	.st257{fill:#DEDFE0;}
	.st258{fill:#E0DFDF;}
	.st259{fill:#DDDFDF;}
	.st260{fill:#DAD9D8;}
	.st261{fill:#0E1A2E;}
	.st262{fill:#151210;}
	.st263{fill:#312F2D;}
	.st264{fill:#393634;}
	.st265{fill:#322A28;}
	.st266{fill:#333131;}
	.st267{fill:#373434;}
	.st268{fill:#32302F;}
	.st269{fill:#2D2B2A;}
	.st270{fill:#2E2B2A;}
	.st271{fill:#251C1A;}
	.st272{fill:#232322;}
	.st273{fill:#211F1E;}
	.st274{fill:#1C427A;}
	.st275{fill:#0B0E11;}
	.st276{fill:#F5C036;}
	.st277{fill:#F5F5F3;}
	.st278{fill:#F6F7F7;}
	.st279{fill:#151414;}
	.st280{fill:#171615;}
	.st281{fill:#111312;}
	.st282{fill:#24803F;}
	.st283{fill:#141413;}
	.st284{fill:#366F39;}
	.st285{fill:#FFD316;}
	.st286{fill:#1A1818;}
	.st287{fill:#191717;}
	.st288{fill:#191919;}
	.st289{fill:#191818;}
	.st290{fill:#181817;}
	.st291{fill:#1B1919;}
	.st292{fill:#1C1B1A;}
	.st293{fill:#1C1A1A;}
	.st294{fill:#1E1C1C;}
	.st295{fill:#FAF9F8;}
	.st296{fill:#151616;}
	.st297{fill:#919090;}
	.st298{fill:#0E0F0F;}
	.st299{fill:#1A1A1A;}
	.st300{fill:#9B9A9C;}
	.st301{fill:#979897;}
	.st302{fill:#9B9C9C;}
	.st303{fill:#939291;}
	.st304{fill:#7D7B78;}
	.st305{fill:#C6C3C2;}
	.st306{fill:#BFBEBE;}
	.st307{fill:#C2C3C1;}
	.st308{fill:#241E1D;}
	.st309{fill:#232425;}
	.st310{fill:#1F1D1D;}
	.st311{fill:#252526;}
	.st312{fill:#3D3A39;}
	.st313{fill:#989898;}
	.st314{fill:#979898;}
	.st315{fill:#999898;}
	.st316{fill:#9A9997;}
	.st317{fill:#242424;}
	.st318{fill:#252424;}
	.st319{fill:#232121;}
	.st320{fill:#232222;}
	.st321{fill:#262625;}
	.st322{fill:#272525;}
	.st323{fill:#242322;}
	.st324{fill:#242323;}
	.st325{fill:#212120;}
	.st326{fill:#272626;}
	.st327{fill:#272726;}
	.st328{fill:#282626;}
	.st329{fill:#292828;}
	.st330{fill:#282726;}
	.st331{fill:#222121;}
	.st332{fill:#222020;}
	.st333{fill:#242222;}
	.st334{fill:#262525;}
	.st335{fill:#212020;}
	.st336{fill:#252323;}
	.st337{fill:#262524;}
	.st338{fill:#272526;}
	.st339{fill:#232122;}
	.st340{fill:#262424;}
	.st341{fill:#232221;}
	.st342{fill:#272424;}
	.st343{fill:#252423;}
	.st344{fill:#242223;}
	.st345{fill:#21201F;}
	.st346{fill:#201E1F;}
	.st347{fill:#211F1F;}
	.st348{fill:#22201F;}
	.st349{fill:#201F1E;}
	.st350{fill:#222120;}
	.st351{fill:#0C0A0A;}
	.st352{fill:#A42122;}
	.st353{fill:#DADADA;}
	.st354{fill:#D9DAD9;}
	.st355{fill:#ADB0B0;}
	.st356{fill:#AFAFAF;}
	.st357{fill:#AFADAD;}
	.st358{fill:#D4D7DA;}
	.st359{fill:#F0EFEE;}
	.st360{fill:#EDEEF0;}
	.st361{fill:#ACAEAE;}
	.st362{fill:#9B9C9A;}
	.st363{fill:#FCFCFA;}
	.st364{fill:#797976;}
	.st365{fill:#6F6E6C;}
</style>
<path class="st6" d="M659.85,278.39c-219.95,0-439.9,0-659.85,0C0,185.67,0,92.94,0,0.21c0.83-0.34,1.73-0.17,2.59-0.17
	c218.18-0.01,436.37-0.01,654.55-0.01c3.31,0,2.94-0.25,2.94,2.22c0,91.4,0,182.79-0.01,274.19
	C660.08,277.09,660.29,277.77,659.85,278.39z"/>
<g>
	<path class="st37" d="M-10.69,183.52c-0.53,4.1,1.33,7.5,3.24,10.88c1.87,3.3,4.81,5.47,7.83,7.62
		c6.9,4.91,10.96,11.46,11.61,20.03c0.46,6.06,0.02,12.15,0.67,18.2c0.68,6.31,2.36,12.27,6.02,17.55c1.26,1.82,2.9,3.23,4.99,4.78
		c0.04-1.84-0.69-3.03-1-4.31c-1.47-5.93-1.81-11.88,0.49-17.63c6.5-16.21,24.51-15.89,33.16-7.57c5.7,5.48,7.85,12.01,6.88,19.72
		c-0.08,0.64-0.16,1.28-0.23,1.92c-0.1,2.75-1.5,4.93-3.1,7.01c-6.76,8.27-15.56,10.72-25.73,9.18c1.26,1.41,3.13,2.37,4.65,3.75
		c0.94,1,2.59,1.21,3.08,2.72c2.1,1.71,4.58,2.7,7.06,3.65c11.9,4.57,24.05,4.94,36.35,2.03c10.27-2.43,19.1-7.51,26.66-14.81
		c4.3-4.15,8.48-8.44,12.71-12.66c0.77-0.77,1.65-1.43,1.05-2.82c-0.36-0.84,0.36-1.54,0.96-2.14c1.17-1.17,2.34-2.35,3.51-3.52
		c1.36-1.36,2.87-2.58,2.97-4.77c0.04-0.84,0.76-1.44,1.35-2.03c3.64-3.65,7.27-7.3,10.92-10.94c0.63-0.63,1.17-1.38,2.34-1.01
		c1.12,0.36,1.59-0.73,2.2-1.34c3.12-3.12,6.14-6.33,9.71-8.98c1.59-1.18,3.37-1.42,4.47-0.39c1.12,1.05,1.04,3.33-0.18,4.75
		c-0.66,0.76-1.35,1.51-2.02,2.26c0.08,1.64-0.85,2.88-1.93,3.82c-3.73,3.24-6.06,7.59-9.25,11.26c-3.7,4.26-7.59,8.2-12.8,10.64
		c-1.94,0.91-3.17,2.78-4.71,4.21c-1.21,1.13-2.3,2.44-4.15,2.48c-1.52-0.35-2.37,0.66-3.27,1.59c-3.64,3.78-7.45,7.39-11.08,11.17
		c-11.9,12.38-26.72,17.85-43.6,18.33c-12.93,0.37-24.7-3.37-35.45-10.47c-2.95-2.62-5.78-5.37-8.36-8.35
		c-1.42-1.64-3.34-2.52-5.1-3.66c-2.75-2.26-5.39-4.63-7.15-7.8c-2.29-3.91-4.33-7.91-4.46-12.59c-0.7-5.27-1.02-10.55-0.93-15.87
		c0.02-1.09-0.11-2.19-0.18-3.28c-0.76-3.59-0.69-7.36-2.35-10.76c-1.85-4.78-4.91-8.53-9.34-11.17c-2.6-1.55-4.99-3.39-7.38-5.24
		c-4.19-3.95-7.53-8.39-8.4-14.29c-0.54-3.64-1.05-7.27-0.48-10.96c1.44-9.34,6.27-16.45,14-21.78c5.32-3.68,11.34-5.98,16.99-9.01
		c5.93-3.18,11.05-7.22,13.99-13.5c0.39-0.83,0.87-1.62,0.87-2.58c0.5-2.87,0.03-5.59-1.28-8.18c-0.01-7.08-0.66-14.15-0.48-21.24
		c0.17-6.5,4.17-11.84,9.95-13.43c1.17-0.32,2.36-0.42,3.55-0.33c1.96,0.15,3.47,1.06,4.47,2.81c1.57,2.74,1.94,5.72,1.74,8.8
		c-0.08,1.28-0.29,2.56-0.45,3.84c-0.9,5.02-3.09,6.64-8.13,6.05c-2.87-0.34-2.89-0.34-3.03,2.51c-0.04,0.83-0.14,1.63-0.48,2.39
		c-0.06,3.14,0.53,6.28-0.02,9.41c-0.87,2.01-1.5,4.09-1.96,6.25c-0.76,3.52-2.57,6.6-4.48,9.61c-4.92,6.41-11.67,10.27-18.86,13.52
		c-7.46,3.38-14.33,7.54-19.11,14.48c-1.16,1.68-2.01,3.5-2.74,5.38c-1.18,2.97-1.68,6.05-1.38,9.24c0.24,2.84,0.35,5.69,1.43,8.18
		c-1.45-7.21,1.11-13.73,4.51-20.06c2.48-4.65,6.48-7.83,10.51-10.99c3.97-2.75,8.27-4.84,12.81-6.46c2.51-0.3,4.84-1.85,7.51-1.15
		c5.97-1.44,12.11-2.18,17.93-4.29c5.19-1.88,9.76-4.61,13.4-8.82c0.85-0.98,1.52-2.06,2.24-3.12c0.71-1.04,1.17-2.01,0.56-3.3
		c-0.56-1.21,0.01-2.3,0.6-3.38c1.14-2.08,2.58-4.01,3.27-6.32c-0.16-1.29,0.73-2.2,1.21-3.25c0.61-1.31,0.29-1.97-1.11-2.39
		c-1.87-0.56-3.94-0.88-4.95-2.93c-2.63-5.28,1.87-13.78,6.01-16.86c2.5-1.85,4.77-1.67,7.31,0.24c4.68,3.51,6.52,8.04,5.34,13.78
		c-0.11,0.54-0.13,1.1-0.2,1.64c0.05,1.52-0.47,2.89-1.16,4.19c-2.53,4.78-5.05,9.56-7.69,14.28c-1,1.8-2.3,3.23-4.13,4.28
		c-2.51,1.43-3.84,4.13-6.01,5.97c-1.32,1.12-2.48,2.44-3.7,3.68c-3.95,3.38-8.69,5.12-13.61,6.44c-6.14,1.65-12.42,2.7-18.56,4.34
		c-7.47,1.99-14.08,5.56-19.63,10.83c-3.05,2.89-5.55,6.39-7.14,10.4C-9.98,176.28-10.18,179.93-10.69,183.52z"/>
	<path class="st38" d="M209.83,139.05c2.1,6.14,0.97,11.58-3.63,16.18c-29.94,29.97-59.89,59.93-89.84,89.89
		c-3.65,3.65-7.27,7.31-10.94,10.94c-5.4,5.35-13.91,6.01-19.99-0.03c-9.55-9.48-19.04-19.03-28.56-28.54
		c-4.76-4.76-9.52-9.51-14.29-14.26c-1.77-1.77-3.28-3.72-4.1-6.12c-1.17-3.42-1.17-6.84,0.08-10.25c1.23,0.13,1.87,1.1,2.63,1.88
		c6,6.09,12.01,12.16,17.78,18.47c6.15,6.73,13.47,12.27,19.68,18.96c2.62,2.82,4.85,5.97,8.12,8.22c5.8,3.99,13.11,3.69,18.27-1.12
		c1.95-1.82,3.79-3.75,5.68-5.64c30.65-30.65,61.3-61.29,91.94-91.95c1.63-1.63,3.3-3.2,4.71-5.03
		C208.01,139.86,208.68,139.07,209.83,139.05z"/>
	<path class="st39" d="M209.83,139.05c-4.23,5.73-9.6,10.4-14.59,15.41c-29.72,29.8-59.49,59.54-89.25,89.3
		c-4.81,4.81-12.15,5.91-18.04,2.58c-2.55-1.45-4.82-3.36-6.74-5.62c-4.65-5.48-9.83-10.43-15.17-15.24
		c-3.48-3.13-6.95-6.32-9.81-10.09c-0.66-0.88-1.45-1.68-2.28-2.4c-4.72-4.12-8.63-9.02-13.2-13.28c-0.88-0.82-1.7-1.69-2.17-2.83
		c-2.58-6.79-1.44-12.75,3.77-17.95c31.79-31.74,63.56-63.51,95.33-95.26c1.63-1.63,3.23-3.28,4.88-4.88
		c6.19-5.98,15.23-5.94,21.27,0.1c13.96,13.93,27.82,27.95,41.9,41.76c5.23,5.14,6.47,10.86,4.23,17.6
		C209.87,138.5,209.87,138.78,209.83,139.05z"/>
	<path class="st38" d="M22.73,265.14c2.41,1.21,4.6,2.58,6.38,4.77c2.17,2.68,4.84,4.97,7.29,7.43c-0.53,1.06-1.48,0.74-2.31,0.71
		c8.16,7.03,17.59,11.38,28.3,12.54c16.79,1.82,32.24-1.76,45.47-12.63c5.82-4.78,10.78-10.52,16.1-15.85
		c0.6-0.6,0.86-1.39,1.12-2.18c0.57-1.75,1.71-2.98,3.47-3.61c1.14,0.34,1.92-0.22,2.66-0.99c1.34-1.38,2.72-2.73,4.09-4.09
		c1.1-1.09,2.06-2.38,3.9-2.22c0.55,0.05,1.05-0.34,1.43-0.75c3.06-3.27,7.1-5.54,9.57-9.43c0.53-0.83,1.4-1.45,2.1-2.18
		c0.38-0.4,1.02-0.78,1.07-1.22c0.29-2.8,2.61-4.07,4.29-5.78c1.55-1.58,2.81-3.38,4.28-5.01c1.04,0.26,2.28,0.2,2.71,1.52
		c0.43,1.34-0.38,2.18-1.13,3.17c-2.79,3.67-6.09,6.86-9.34,10.08c-0.39,0.39-0.97,0.8-0.83,1.36c0.44,1.82-0.87,2.68-1.89,3.7
		c-3.24,3.27-6.5,6.52-9.74,9.78c-0.98,0.98-1.9,1.99-3.5,1.91c-0.91-0.05-1.48,0.66-2.06,1.24c-1.63,1.63-3.25,3.26-4.88,4.88
		c-0.58,0.58-1.21,1.47-2.07,1.06c-1.63-0.77-2.37,0.32-3.26,1.21c-4.37,4.35-8.77,8.67-13.08,13.08
		c-5.02,5.14-11.01,8.78-17.52,11.63c-8.03,3.52-16.52,5.03-25.21,5.04c-12.33,0.03-23.82-3.2-33.94-10.42
		c-3.13-2.23-5.78-5.13-8.1-8.23c-0.51-0.68-0.94-1.28-1.74-1.66c-5.33-2.54-9.3-6.52-11.89-11.78c-2.38-4.82-3.85-9.92-4.06-15.33
		c-0.02-0.55-0.05-1.11,0.24-1.61c0.17,0.31,0.43,0.61,0.5,0.95c0.78,3.84,2.49,7.3,4.21,10.77c1.58,4.45,4.16,8.22,7.82,11.41
		C23.02,267.22,22.23,266.26,22.73,265.14z"/>
	<path class="st40" d="M192.77,222.7c-1.27-0.19-2.54-0.34-3.8-0.59c-1.47-0.29-1.84-1.19-0.86-2.34c1.13-1.32,2.39-2.55,3.68-3.73
		c0.99-0.91,1.29-1.8,0.82-3.15c-1.61-4.63-0.66-8.68,3.07-11.98c0.82-0.73,1.56-1.57,2.36-2.32c4.62-4.33,10.47-4.3,15.02,0.12
		c1.51,1.47,2.83,3.15,4.33,4.63c7.19,7.11,14.42,14.19,21.63,21.29c0.46,0.45,0.9,0.92,1.35,1.38c3.48,3.5,4.66,7.59,3.14,12.36
		c-1.45,5.15-5.21,8.2-9.93,9.84c-4.3,1.5-8.13-0.18-11.29-3.32c-5.82-5.77-11.67-11.51-17.36-17.41c-2.18-2.27-4.55-3.57-7.7-3.67
		C195.71,223.76,194.08,223.77,192.77,222.7z"/>
	<path class="st41" d="M202.15,182.85c-1.09-0.13-2.21-0.16-3.27-0.42c-1.13-0.28-1.41-1.19-0.64-2.07
		c1.22-1.38,2.54-2.67,3.84-3.97c1.15-1.15,1.43-2.3,0.81-3.94c-1.58-4.19-0.72-7.93,2.56-11.08c1.92-1.85,3.87-3.69,5.64-5.68
		c3.65-4.1,11.12-3.88,14.89-0.02c8.42,8.64,17.01,17.11,25.58,25.6c3.46,3.42,4.27,7.35,2.71,11.87c-0.12,0.34-0.18,0.69-0.27,1.04
		c-0.1,0.36,0.19-0.03-0.01,0.27c-3.35,4.94-6.89,9.83-13.03,11.44c-4.2,1.1-7.99-0.37-11.08-3.43c-4.97-4.91-9.99-9.77-14.79-14.85
		c-2.33-2.47-4.92-3.67-8.24-3.66C205.23,183.95,203.53,184.05,202.15,182.85z"/>
	<path class="st42" d="M96.5,94.45c-0.28-2.63-0.55-5.26-0.83-7.88c-0.46-5.52-3.85-9.22-7.7-12.76
		c-3.58-3.29-6.89-6.87-10.36-10.28c-1.23-1.21-2.06-2.56-2.22-4.29c-1.56-4.93-0.72-9.21,3.27-12.74c1.58-1.4,3.06-2.92,4.49-4.47
		c4.4-4.77,11.83-4.06,15.75-0.01c7.74,7.99,15.62,15.84,23.59,23.6c3.33,3.24,4.21,6.94,3.34,11.29c-0.13,0.63-0.24,1.26-0.36,1.89
		c-1.19,4.63-5.07,7.04-8.36,9.87c-2.91,2.5-6.46,3.11-10.12,2.16c-2.11-0.55-3.51,0.08-4.86,1.55c-0.93,1.01-1.87,2.04-3.03,2.8
		C97.99,95.9,97.03,95.92,96.5,94.45z"/>
	<path class="st43" d="M192.77,222.7c2.95-0.21,5.83,0.52,8.75,0.68c0.99,0.05,1.5,1.01,2.14,1.65
		c6.26,6.24,12.69,12.32,18.69,18.79c4.26,4.59,11.7,5.9,16.58,0.01c1.51-1.83,3.46-3.3,4.59-5.45c0.84,3.91-0.38,7.21-3.01,10.08
		c-0.68,0.74-1.45,1.41-2.12,2.17c-4.2,4.73-11.45,4.02-15.43-0.04c-6.43-6.56-13.01-12.99-19.45-19.54
		c-1.33-1.35-2.69-1.96-4.59-1.9c-3.36,0.11-6.69-0.33-10.4-1C190.12,226.09,191.44,224.39,192.77,222.7z"/>
	<path class="st44" d="M202.15,182.85c2.65,0.17,5.29,0.45,7.94,0.47c1.64,0.01,2.73,0.7,3.81,1.8
		c5.55,5.63,11.15,11.22,16.72,16.82c3.04,3.05,6.65,4.04,10.84,3.09c1.56-0.36,2.92-1.03,4.05-2.18c2.83-2.89,5.66-5.77,8.49-8.65
		c0.79,0.6,0.71,1.45,0.59,2.27c-0.36,2.61-1.24,4.95-3.25,6.8c-1.76,1.62-3.4,3.36-5.08,5.07c-2.48,2.52-5.46,3.63-8.98,3.22
		c-1.86-0.22-3.5-0.88-4.88-2.28c-5.56-5.64-11.3-11.11-16.72-16.89c-2.1-2.24-4.42-3.16-7.27-3.05c-2.59,0.1-5.13-0.37-7.7-0.47
		c-1.86-0.07-1.88-0.46-1.11-2.2C200.26,185.22,201.99,184.56,202.15,182.85z"/>
	<path class="st45" d="M49.67,140.57c1.87-1.9,3.74-3.8,5.61-5.71c0.77-0.79,1.56-1.55,2.07-2.56c0.46-0.93,1.18-1.63,2.25-1.88
		c1.56-0.35,2.49-1.43,3.22-2.78c3.11-5.72,6.46-11.32,9.19-17.25c0.3-0.66,0.46-1.42,1.07-1.9c1.22,2.7,0.42,5.4-0.75,7.68
		c-3.36,6.52-6.37,13.24-10.35,19.44c-0.6,0.93-1.2,1.61-2.36,1.58c-1.04-0.03-1.59,0.47-2.14,1.38
		c-4.72,7.82-11.84,12.29-20.5,14.69c-6.38,1.77-12.92,2.82-19.32,4.55c-8.88,2.4-16.42,6.79-22.46,13.69
		c-2.32,2.65-3.71,5.88-4.86,9.19c-0.33,0.95-0.7,1.89-1.05,2.84c-0.61-3.65,0.01-7.14,1.35-10.54c1.62-1.4,2.3-3.47,3.73-5.05
		c6.21-6.89,14.21-10.58,22.86-13.16c6.17-1.84,12.55-2.79,18.77-4.42c7.61-1.99,13.99-5.85,18.22-12.45
		C52.72,138.55,52.3,141.36,49.67,140.57z"/>
	<path class="st46" d="M234.04,144.57c-1.63-1.57-2.15-3.44-1.23-5.52c0.57-1.29,0.09-2.06-0.79-2.87
		c-1.01-0.94-2.02-1.89-2.91-2.94c-1.07-1.25-0.79-2.08,0.8-2.64c0.52-0.18,1.07-0.28,1.61-0.39c2.6-0.56,4.83-1.72,6.55-3.8
		c0.53-0.63,1.18-1.16,1.73-1.78c2.63-2.91,5.92-3.47,9.57-2.64c0.99,0.23,1.8,0.52,2.82-0.25c1.68-1.27,2.78-1.1,4.14,0.19
		c1.3,1.23,1.75,2.79,0.71,4.2c-0.87,1.18-0.73,2.13-0.35,3.3c0.53,1.62,0.39,3.27-0.05,4.89c-0.21,0.79-0.65,1.53-0.61,2.39
		c-0.26,1.78-1.53,2.88-2.74,3.98c-2.03,1.84-3.3,4.05-3.99,6.71c-0.98,3.8-2.79,4.37-5.5,1.63c-1.81-1.83-3.64-2.8-6.28-2.45
		C236.08,146.78,234.56,146.34,234.04,144.57z"/>
	<path class="st47" d="M163.9,254.67c-1.23-0.79-2.48-1.55-3.69-2.39c-1.14-0.79-1.11-1.53,0.04-2.3c0.38-0.25,0.8-0.44,1.22-0.63
		c2.16-0.95,3.52-2.42,4.64-4.66c4.24-8.55,17.04-11.02,23.69-1.73c2.34,3.27,3.04,6.79,2.36,10.68c-0.11,0.63-0.16,1.27-0.25,1.91
		c-0.91,5.83-7.18,10.55-13.68,10.31c-6.81-0.25-11.53-3.77-13.78-10.27C164.34,255.22,164.21,254.9,163.9,254.67z"/>
	<path class="st48" d="M129.83,50.25c-0.19-1.73-0.66-3.41-0.8-5.16c-0.66-8.33,7.85-16.83,17.82-14.07
		c6.99,1.93,11.38,8.79,10.21,16.14c-0.14,0.91-0.29,1.81-0.43,2.72c-0.25,3.33-2.8,5.1-5.01,6.93
		C145.65,61.74,132.75,60.59,129.83,50.25z"/>
	<path class="st49" d="M163.9,254.67c1.42,0.17,1.52,1.51,1.97,2.42c1.82,3.77,4.6,6.47,8.68,7.44c7.21,1.71,13.06-0.87,16.75-7.76
		c0.22-0.4,0.41-0.82,0.62-1.22c1.14,5.98-1.49,10.51-6.06,13.75c-4.19,2.97-8.92,2.65-13.62,0.58c-2.82-1.24-4.59-3.42-5.77-5.98
		c-0.8-1.73-1.84-2.88-3.44-3.69c-0.24-0.12-0.44-0.33-0.69-0.45c-1-0.49-2.28-1.03-2.23-2.17c0.04-1.04,1.48-1.13,2.35-1.57
		C163.06,255.71,163.98,255.72,163.9,254.67z"/>
	<path class="st50" d="M96.5,94.45c0.78,0.8,1.52,0.85,2.33-0.01c1.39-1.46,2.84-2.86,4.26-4.29c0.67-0.68,1.32-1.21,2.4-0.73
		c5.04,2.24,9.26,0.7,12.96-2.94c2.47-2.44,5.02-4.8,7.01-7.68c1.17,2.9,0.14,5.6-1.61,7.64c-2.34,2.75-4.38,5.8-7.54,7.91
		c-3.26,2.17-6.5,3.05-10.05,1.44c-1.89-0.86-3.01-0.47-4.26,0.94c-1.33,1.51-2.83,2.87-4.39,4.43
		C96.23,98.96,96.96,96.6,96.5,94.45z"/>
	<path class="st38" d="M129.83,50.25c1.78,2.95,4,5.46,7.04,7.21c3.91,2.25,12.17,1.55,15.43-2.27c1.49-1.74,3.23-3.26,4.32-5.32
		c0.93,5.94-2.45,10.9-6.58,13.17c-6.77,3.72-11.84,2.1-16.45-2.1C130.66,58.26,128.94,54.57,129.83,50.25z"/>
	<path class="st51" d="M234.04,144.57c1.7,1.42,3.61,1.78,5.66,1c1.04-0.4,1.72-0.09,2.42,0.65c1.07,1.14,2.14,2.28,3.31,3.31
		c1.23,1.09,2.46,0.84,2.6-0.74c0.49-5.55,4.64-8.51,8-12.08c0.85,3.61,0.11,6.68-2.83,9.17c-2.64,2.25-4.62,4.89-4.84,8.61
		c-0.12,1.97-1.59,2.41-3.06,1.11c-1.03-0.91-1.98-1.92-2.95-2.92c-0.7-0.73-1.47-1.11-2.46-0.66c-2.41,1.09-4.05-0.1-5.52-1.83
		C232.84,148.41,232.94,146.52,234.04,144.57z"/>
	<path class="st44" d="M8.04,215.6c1.37,3.39,1.84,6.9,1.45,10.53c-0.2-0.3-0.49-0.58-0.57-0.91c-1.64-6.54-5.38-11.61-11.02-15.16
		c-2.72-1.71-5.41-3.54-7.67-5.72c-5.48-5.3-9.38-11.49-8.21-19.67c0.69,1.47,1.34,2.96,2.09,4.4c1.81,3.47,3.9,6.75,6.88,9.36
		c2.82,3.59,5.64,7.1,9.68,9.54C3.73,209.81,5.83,212.81,8.04,215.6z"/>
	<path class="st52" d="M75.39,59.24c0.62,1.36,1.63,2.41,2.67,3.44c5.26,5.24,10.48,10.53,15.77,15.73
		c1.19,1.17,1.97,2.35,1.76,4.07c-0.16,1.36,0.59,2.71,0.07,4.08C90.2,81.09,84.8,75.54,79.23,70.16
		C76.06,67.1,74.64,63.6,75.39,59.24z"/>
	<path class="st53" d="M41.87,277.36c-1.36-0.33-2.31-1.35-3.44-2.07c0.78-1.03,1.98-0.85,3.03-0.99
		c7.88-1.08,13.98-4.77,17.7-11.97c0.17-0.32,0.39-0.62,0.22-1.02c1.35-2.12,2.58-4.31,3.59-6.61c0.59,4.66-0.46,8.85-3.24,12.68
		C55.3,273.49,49.17,276.44,41.87,277.36z"/>
	<path class="st54" d="M21.45,147.46c-2.31,0.64-4.61,1.36-7,1.64c0.16-1.88,1.86-2.34,3.06-3.2c4.07-2.91,7.02-6.68,8.95-11.27
		c0.01-1,0.77-1.66,1.25-2.39c1.72-2.57,2.75-5.42,3.13-8.41c0.24-1.89,0.94-3.27,2.39-4.38c0.05,1.46,0.11,2.93,0.16,4.39
		c0.04,1.49,0.11,2.98-1.68,3.66c-0.75,0.28-0.61,1.04-0.69,1.66c-0.83,6.41-3.63,11.82-8.25,16.31
		C22.2,146.03,21.4,146.47,21.45,147.46z"/>
	<path class="st55" d="M33.25,110.04c-0.48-1.61-0.13-3.26-0.23-4.89c-0.06-0.99,0.43-1.31,1.34-1.17c1.08,0.17,2.19,0.23,3.23,0.54
		c2.65,0.8,5.07-0.84,6.39-3.45c0.33-0.65,0.61-1.31,0.92-1.97c0.51,2.4,0.22,4.77-0.52,7.04c-1.33,4.09-3.99,5.76-8.21,4.58
		C35.21,110.46,34.3,109.92,33.25,110.04z"/>
	<path class="st56" d="M54.62,109.67c2.08,1.18,4.18,2.31,6.63,2.54c1.02,0.1,1.27,0.76,0.84,1.55c-0.83,1.52-1.31,3.25-2.62,4.48
		C54.61,117.21,53.32,114.93,54.62,109.67z"/>
	<path class="st57" d="M26.11,118.66c0.24,0.38,0.4,0.85,0.73,1.11c2.74,2.17,1.59,4.62,0.56,7.07c-1.26-0.91-1.17-2.38-1.33-3.65
		C25.87,121.7,25.8,120.16,26.11,118.66z"/>
	<path class="st58" d="M60.55,252.33c-0.94,6.55-5.17,10.6-10.68,13.41c-6.34,3.23-12.91,3.01-19.49,0.55
		c-0.86-0.32-1.64-0.69-2.13-1.59c-2.32-4.23-4.07-8.62-4-13.55c0.76-8.76,9.14-14.29,15.46-14.98c8.45-0.92,16.6,3.54,19.91,11.02
		C60.34,248.85,60.34,250.6,60.55,252.33z"/>
	<path class="st6" d="M128.54,256.33c-1.14,1.44-3.18,2.33-2.72,4.75c0.12,0.62-0.66,1.06-1.11,1.51
		c-5.07,5.08-10,10.31-15.27,15.17c-4.67,4.32-10.21,7.46-16.12,9.81c-6.97,2.77-14.27,4.27-21.76,4.39
		c-10.66,0.17-20.84-1.97-30.09-7.51c-3.25-1.95-6.53-3.97-9.05-7.37c1.51,0.04,2.72,0.87,3.97,0.27c2.09,1.15,4.16,2.34,6.26,3.45
		c9.34,4.91,19.33,6.93,29.83,6.49c9.58-0.4,18.76-2.46,27.25-7.08c4.94-2.69,9.52-5.89,13.5-9.9c4.35-4.36,8.71-8.71,13.11-13.02
		C126.91,256.74,127.32,255.5,128.54,256.33z"/>
	<path class="st6" d="M49.67,140.57c1.43-0.2,2.06-1.46,2.99-2.3c1.01-0.9,1.92-1.89,2.87-2.85c0.77,0.73,0.58,1.41,0.22,1.91
		c-2.92,4.03-6.08,7.78-10.57,10.23c-3.92,2.14-8.06,3.61-12.4,4.44c-5.42,1.03-10.8,2.23-16.09,3.73
		c-6.12,1.74-11.96,4.33-16.97,8.28c-2.7,2.13-5.17,4.65-9.05,8.96c3.75-9.33,10.87-15.25,19.74-19.36
		c6.24-2.89,12.97-4.05,19.61-5.54c5.12-1.15,10.24-2.25,14.98-4.64C46.64,142.61,48.24,141.73,49.67,140.57z"/>
	<path class="st6" d="M26.46,134.62c0.27-0.03,0.9-0.46,0.73,0.07c-0.49,1.46-1.1,2.92-1.94,4.2c-2.43,3.67-5.31,6.93-9.32,8.99
		c-0.55,0.28-0.99,0.8-1.47,1.21c-4.32,1.8-8.54,3.81-12.55,6.24c-5.42,3.53-10.81,7.09-14.41,12.69c-0.47,0.73-1.04,1.89-2.35,1.04
		c2.78-8.1,8.5-13.52,15.78-17.64c4.56-2.59,9.47-4.47,14.02-7.09C19.37,141.78,23.26,138.62,26.46,134.62z"/>
	<path class="st6" d="M25.18,242.58c1.75-4.97,4.62-8.96,9.61-11.14c5.75-2.51,11.37-1.95,16.71,1.06c4.7,2.65,7.72,6.72,8.94,12.04
		c-1.64,0.74-1.98-0.84-2.64-1.61c-4.37-5.14-9.84-7.75-16.64-7.56c-4.81,0.14-8.88,1.79-12.3,5.23
		C27.91,241.56,27.2,243.43,25.18,242.58z"/>
	<path class="st59" d="M25.18,242.58c1.3-0.24,1.98-1.33,2.72-2.2c6.19-7.19,17.74-7.29,24.8-2.99c2.71,1.65,4.94,3.77,6.66,6.43
		c0.26,0.41,0.55,0.72,1.07,0.72c0.72,2.59,0.5,5.19,0.12,7.79c-0.16-0.33-0.38-0.64-0.46-0.98c-1.6-6.9-5.67-11.46-12.53-13.58
		c-7.11-2.19-13.2-0.47-18.35,4.64c-1.94,1.93-3.35,4.32-4.14,7.02c-0.18,0.61-0.34,1.25-0.82,1.72
		C23.82,248.21,23.93,245.33,25.18,242.58z"/>
	<path class="st6" d="M59.38,261.32c0.26,1.65-0.34,3.13-1.73,4.97c-4.62,6.12-11.06,8.45-18.4,8.93c-0.27,0.02-0.55,0.05-0.82,0.08
		c-2.15-1.67-4.51-3.11-6.35-5.63c2.56,0.46,4.86,0.86,7.22,0.89c7.29,0.08,13.46-2.46,18.55-7.66
		C58.36,262.38,58.87,261.84,59.38,261.32z"/>
	<path class="st60" d="M59.2,107.13c-0.12,0.07-0.41,0.29-0.74,0.45c-1.26,0.63-1.93,0.31-2.06-1.08c-0.11-1.19-0.03-2.37,0.29-3.55
		c0.85-3.11,2.6-5.65,4.91-7.8c0.7-0.66,1.69-1.56,2.66-1.03c1.01,0.55,0.64,1.79,0.48,2.78c-0.5,2.97-1.95,5.51-3.68,7.9
		C60.54,105.55,59.93,106.24,59.2,107.13z"/>
	<path class="st60" d="M41.25,87.52c0.15,0.25,0.58,0.76,0.8,1.34c1.39,3.7,1.33,7.38-0.21,11.03c-0.18,0.42-0.41,0.84-0.7,1.18
		c-0.7,0.8-1.43,0.73-2.04-0.14c-0.1-0.15-0.19-0.32-0.25-0.49c-1.53-4.23-1.55-8.48-0.05-12.7C39.31,86.29,39.94,86.24,41.25,87.52
		z"/>
	<path class="st61" d="M-14.86,169.06c3.48-4.69,7.88-8.69,11.49-10.92c1.7-1.05,3.23-2.41,5.28-2.82
		c-1.23,1.66-3.15,2.49-4.63,3.87c-2.52,2.33-4.49,5.05-6.39,7.86c-2.45,2.31-3.3,5.52-4.7,8.42c-0.49,1.03-0.64,2.34-2.13,2.53
		C-16.27,174.94-16.06,171.94-14.86,169.06z"/>
	<path class="st6" d="M8.04,215.6c-1.14-0.13-1.62-1.13-2.32-1.81c-2.62-2.55-5.22-5.04-8.38-7.02c-3.04-1.9-5.12-4.88-6.35-8.33
		c2.17,1.54,4.23,3.29,6.54,4.59C2.65,205.91,6.18,210.03,8.04,215.6z"/>
	<path class="st6" d="M22.73,265.14c0.64,1.6,1.29,3.19,1.9,4.72c-0.33,0.33-0.58,0.46-0.83,0.26c-3.79-3.15-6.83-6.87-8.52-11.57
		c-0.16-0.45-0.94-1.07,0.03-1.55C17.28,260.17,19.95,262.71,22.73,265.14z"/>
	<path class="st62" d="M153.49,229.95c-0.45,0.45-0.89,0.91-1.35,1.34c-0.58,0.54-1.13,0.44-1.65-0.13c-0.45-0.49-0.44-0.98,0-1.44
		c0.89-0.91,1.8-1.79,2.72-2.68c0.51-0.5,1.03-0.69,1.64-0.1c0.6,0.58,0.49,1.11-0.02,1.64
		C154.39,229.06,153.93,229.5,153.49,229.95C153.48,229.95,153.48,229.95,153.49,229.95z"/>
	<path class="st62" d="M160.28,220.64c0.28-0.28,0.46-0.5,0.67-0.67c0.34-0.26,0.68-0.71,1.17-0.37c0.6,0.42,0.31,0.95,0.04,1.43
		c-0.14,0.23-0.33,0.45-0.53,0.62c-0.58,0.47-1.12,1.55-1.97,0.65C158.93,221.54,160,221.09,160.28,220.64z"/>
	<path class="st62" d="M156.85,225.2c-0.53-0.58-0.74-1.04-0.17-1.5c0.43-0.34,0.82-0.16,1.17,0.17c0.42,0.4,0.71,0.87,0.24,1.37
		C157.61,225.77,157.14,225.42,156.85,225.2z"/>
	<path class="st63" d="M154.09,191.85c-16.41,16.41-32.82,32.82-49.24,49.23c-1.17,1.17-2.29,2.39-3.76,3.22
		c-4.55,2.57-10.31,1.87-14.35-1.83c-1.63-1.49-3.16-3.1-4.72-4.66c-12.65-12.65-25.28-25.3-37.94-37.93
		c-1.45-1.45-2.69-3.02-3.44-4.94c-1.71-4.4-1.2-8.46,1.8-12.19c1.04-1.29,2.11-2.55,3.28-3.72c31.25-31.27,62.48-62.55,93.74-93.81
		c1.95-1.95,3.79-4.01,6.05-5.64c5.73-4.12,11.62-3.84,16.76,1.03c3.61,3.43,7.09,6.99,10.61,10.51
		c10.17,10.17,20.32,20.35,30.49,30.52c1.11,1.11,2.14,2.26,3.05,3.56c3.11,4.46,3.07,10.1-0.29,14.38
		c-1.19,1.51-2.59,2.87-3.96,4.23c-16.01,16.03-32.03,32.04-48.05,48.06C154.1,191.87,154.09,191.86,154.09,191.85z"/>
	<path class="st29" d="M191.2,219.91c1.66-1.66,2.88-2.89,4.12-4.11c0.66-0.65,0.79-1.15,0.23-2.11c-2.36-4.04-1.86-7.42,1.37-10.72
		c0.97-0.98,1.93-1.97,2.95-2.9c3.51-3.17,8.46-2.77,11.41,0.24c9.22,9.39,18.52,18.7,27.93,27.9c3.17,3.1,3.6,7.63,0.49,11.37
		c-1.11,1.34-2.38,2.57-3.69,3.71c-3.55,3.09-8.01,2.92-11.37-0.43c-6.72-6.68-13.44-13.37-20.09-20.13
		c-1.18-1.19-2.39-1.8-4.07-1.89C197.58,220.67,194.69,220.27,191.2,219.91z"/>
	<path class="st64" d="M201.8,179.74c1.21-1.21,2.4-2.45,3.64-3.63c0.86-0.82,0.94-1.6,0.4-2.69c-2.38-4.77-1.93-7.31,1.84-11.1
		c1.69-1.7,3.45-3.32,5.09-5.06c2.7-2.86,8.6-3.11,11.71,0.08c8.54,8.78,17.29,17.35,25.93,26.04c2.92,2.94,3.1,7.89,0.29,11.02
		c-2.15,2.39-4.45,4.67-6.86,6.79c-3.02,2.65-7.24,2.58-10.39,0.06c-0.72-0.57-1.35-1.25-2.01-1.9
		c-5.48-5.46-10.99-10.9-16.41-16.41c-1.25-1.27-2.54-1.88-4.34-1.93c-2.84-0.08-5.68-0.45-8.51-0.7
		C202.05,180.14,201.93,179.94,201.8,179.74z"/>
	<path class="st65" d="M98.79,91.26c-0.7-3.28-0.77-6.13-0.86-8.94c-0.07-2.17-0.77-3.78-2.34-5.3
		c-5.3-5.13-10.31-10.55-15.72-15.56c-4.15-3.84-3.33-9.9-0.19-12.78c1.83-1.68,3.48-3.55,5.29-5.25c3.54-3.33,8.44-3.39,11.91,0.02
		c8.14,8.02,16.17,16.15,24.26,24.22c4.2,4.19,3.44,9.11,0.21,12.55c-1.7,1.81-3.44,3.6-5.26,5.28c-3.19,2.95-6.53,3.47-10.38,1.38
		c-1.38-0.75-2.13-0.52-3.05,0.49C101.53,88.59,100.32,89.72,98.79,91.26z"/>
	<path class="st29" d="M246.1,147.09c-4.98-4.98-9.54-9.54-14.05-14.05c-0.04-0.55,0.3-0.68,0.67-0.74
		c2.86-0.51,5.07-2.05,6.91-4.23c0.53-0.63,1.14-1.2,1.75-1.76c3.37-3.07,7.85-3.08,10.9-0.03c2.96,2.95,3.05,7.37,0.21,10.73
		c-0.3,0.35-0.62,0.68-0.96,0.99C248.89,140.33,246.54,142.86,246.1,147.09z"/>
	<path class="st66" d="M238.78,143.21c-3.11,0.68-4.09-0.29-3.53-3.53C236.44,140.87,237.53,141.96,238.78,143.21z"/>
	<path class="st67" d="M254.86,124.87c-0.46,0.34-0.76-0.03-1.07-0.31c-0.26-0.24-0.53-0.55-0.23-0.88c0.34-0.38,0.79-0.32,1.17,0
		C255.12,124.01,255.19,124.4,254.86,124.87z"/>
	<path class="st29" d="M163.39,251.16c0.3-0.26,0.46-0.49,0.68-0.58c1.92-0.73,2.91-2.1,3.73-4.03c3.58-8.38,14.72-9.59,20.05-2.29
		c3.84,5.25,2.4,13.07-3.05,16.52c-5.9,3.74-13.44,1.83-16.63-4.23c-0.59-1.12-0.79-2.42-1.86-3.32
		C165.42,252.48,164.18,252.2,163.39,251.16z"/>
	<path class="st68" d="M134.82,36.44c4.7-4.73,11.95-4.84,16.58-0.25c4.7,4.66,4.68,12.13-0.05,16.84
		c-4.7,4.69-11.84,4.67-16.53-0.04C130.12,48.27,130.12,41.17,134.82,36.44z"/>
	<path class="st69" d="M95.93,133.3c16.35-16.35,32.69-32.69,49.04-49.04c1.11-1.11,2.22-2.19,3.66-2.9
		c3.81-1.88,8.04-1.38,11.31,1.56c1.92,1.72,3.69,3.61,5.46,5.49c1.29,1.37,1.31,2.31,0.32,3.96c-1.59,2.67-1.57,3.39,0.55,5.52
		c7.09,7.12,14.21,14.21,21.35,21.28c2.2,2.18,2.95,2.18,5.72,0.41c1.5-0.96,2.28-0.92,3.66,0.4c1.93,1.85,3.81,3.75,5.68,5.66
		c3.58,3.65,2.73,10.23,0.02,13.1c-11.14,11.78-22.82,23.02-34.25,34.51c-21.63,21.74-43.35,43.39-65.02,65.1
		c-1.73,1.74-3.63,3.14-6.04,3.68c-3.71,0.83-6.83-0.19-9.54-2.93c-10.71-10.8-21.49-21.54-32.24-32.3
		c-3.19-3.19-6.43-6.35-9.58-9.58c-3.98-4.07-3.94-10,0.11-14.06c11.64-11.68,23.3-23.33,34.96-34.99c4.95-4.95,9.9-9.9,14.85-14.85
		C95.94,133.32,95.93,133.31,95.93,133.3z"/>
	<path class="st70" d="M230.29,177.36c-3.7-3.7-7.42-7.39-11.1-11.12c-0.7-0.71-2.11-1.49-0.89-2.65c1.07-1.02,1.79,0.31,2.44,0.95
		c7.49,7.45,14.97,14.92,22.42,22.4c0.72,0.72,2.12,1.59,0.9,2.67c-1.13,1.01-1.93-0.43-2.66-1.15
		C237.68,184.78,233.99,181.06,230.29,177.36z"/>
	<path class="st71" d="M221.12,178.23c-2.15-2.15-4.29-4.29-6.43-6.44c-0.32-0.33-0.66-0.64-0.96-0.99c-0.63-0.7-1.33-1.5-0.37-2.34
		c0.79-0.69,1.54-0.11,2.16,0.5c1.63,1.62,3.26,3.24,4.88,4.87c3.05,3.06,6.1,6.12,9.14,9.19c0.75,0.76,1.99,1.68,0.96,2.74
		c-1.08,1.11-1.96-0.23-2.7-0.94c-2.24-2.18-4.43-4.41-6.64-6.62C221.14,178.21,221.13,178.22,221.12,178.23z"/>
	<path class="st72" d="M109.72,70c1.17,1.11,1.26,2.84,0.19,3.92c-0.98,0.99-2.97,0.97-4.01-0.05c-0.99-0.97-1.02-2.7-0.07-3.73
		C106.94,68.92,108.52,68.87,109.72,70z"/>
	<path class="st73" d="M102.41,62.66c1.01,1.06,1.04,2.68,0.08,3.71c-0.96,1.02-2.93,1.03-3.99,0.03c-1.07-1.02-1.05-2.86,0.04-3.92
		C99.7,61.35,101.23,61.42,102.41,62.66z"/>
	<path class="st74" d="M94.81,59.04c-0.99,0.89-2.8,0.8-3.77-0.18c-1.1-1.12-1.02-2.83,0.19-3.9c1.12-1,2.62-0.93,3.69,0.16
		C96.03,56.25,95.98,57.99,94.81,59.04z"/>
	<path class="st75" d="M138.49,47.1c-0.1-0.15-0.27-0.3-0.27-0.45c-0.02-1.92-0.04-3.85,0-5.77c0.01-0.52,0.47-0.75,0.97-0.79
		c0.71-0.05,1.01,0.38,1.06,0.99c0.08,0.82,0.14,1.65,0.1,2.47c-0.06,1.09,0.42,1.45,1.46,1.42c2.02-0.06,4.04-0.06,6.06-0.07
		c0.64,0,1.29-0.02,1.92,0.04c0.5,0.05,0.82,0.39,0.86,0.91c0.04,0.5-0.16,1.02-0.66,1.06c-3.75,0.31-7.51,0.38-11.27,0.29
		C138.66,47.21,138.58,47.14,138.49,47.1z"/>
	<path class="st29" d="M150.58,187.47c-16.21,16.21-32.42,32.42-48.64,48.63c-0.72,0.72-1.4,1.48-2.2,2.1
		c-3.17,2.43-7.35,2.14-10.28-0.78c-13.83-13.8-27.64-27.62-41.44-41.45c-3.16-3.17-3.31-7.19-0.42-10.63
		c0.89-1.06,1.86-2.04,2.84-3.01c31.77-31.77,63.55-63.54,95.33-95.31c0.72-0.72,1.43-1.44,2.18-2.12
		c3.22-2.93,7.14-3.04,10.46-0.17c1.67,1.44,3.14,3.12,4.75,4.63c0.65,0.62,0.66,1.11,0.27,1.91c-1.94,3.88-1.62,5.76,1.42,8.82
		c6.83,6.85,13.67,13.7,20.53,20.53c3.02,3.02,5.07,3.34,8.82,1.32c0.72-0.39,1.18-0.33,1.69,0.18c1.74,1.77,3.61,3.45,5.19,5.35
		c2.97,3.57,1.71,7.92-0.83,10.42c-11.15,10.98-22.17,22.1-33.24,33.17C161.53,176.54,156.06,182.01,150.58,187.47
		C150.59,187.47,150.59,187.47,150.58,187.47z"/>
	<path class="st60" d="M151.11,120.99c3.9,3.9,7.81,7.79,11.69,11.71c0.67,0.67,1.96,1.48,1.06,2.46c-1.06,1.15-1.93-0.19-2.66-0.91
		c-7.94-7.92-15.87-15.85-23.79-23.79c-0.67-0.68-1.94-1.5-1.05-2.47c1.07-1.16,1.93,0.19,2.65,0.91
		C143.07,112.91,147.09,116.95,151.11,120.99C151.12,120.98,151.12,120.98,151.11,120.99z"/>
	<path class="st62" d="M140.31,121.22c-2.14-2.14-4.29-4.29-6.43-6.43c-0.45-0.45-0.91-0.91-1.32-1.4c-0.38-0.45-0.57-1.02-0.18-1.5
		c0.51-0.62,1.16-0.42,1.7,0.01c0.43,0.34,0.82,0.74,1.2,1.13c4.55,4.54,9.11,9.08,13.63,13.65c0.72,0.72,2.21,1.58,1.23,2.64
		c-1.19,1.29-2.05-0.35-2.82-1.09C144.95,125.93,142.64,123.56,140.31,121.22C140.3,121.22,140.3,121.22,140.31,121.22z"/>
	<path class="st62" d="M136.33,125.2c-2.14-2.14-4.29-4.29-6.43-6.43c-0.45-0.45-0.91-0.91-1.32-1.4c-0.38-0.45-0.57-1.02-0.18-1.5
		c0.51-0.62,1.16-0.42,1.7,0.01c0.43,0.34,0.82,0.74,1.2,1.13c4.55,4.54,9.11,9.08,13.63,13.65c0.72,0.72,2.21,1.58,1.23,2.64
		c-1.19,1.29-2.05-0.35-2.82-1.09C140.98,129.91,138.67,127.54,136.33,125.2C136.33,125.2,136.33,125.2,136.33,125.2z"/>
	<g>
		<path class="st60" d="M102.57,168.22c3.9,3.9,7.81,7.79,11.69,11.71c0.67,0.67,1.96,1.48,1.06,2.46
			c-1.06,1.15-1.93-0.19-2.66-0.91c-7.94-7.92-15.87-15.85-23.79-23.79c-0.67-0.68-1.94-1.5-1.05-2.47
			c1.07-1.16,1.93,0.19,2.65,0.91C94.53,160.14,98.55,164.18,102.57,168.22C102.57,168.22,102.57,168.22,102.57,168.22z"/>
		<path class="st62" d="M91.76,168.46c-2.14-2.14-4.29-4.29-6.43-6.43c-0.45-0.45-0.91-0.91-1.32-1.4c-0.38-0.45-0.57-1.02-0.18-1.5
			c0.51-0.62,1.16-0.42,1.7,0.01c0.43,0.34,0.82,0.74,1.2,1.13c4.55,4.54,9.11,9.08,13.63,13.65c0.72,0.72,2.21,1.58,1.23,2.64
			c-1.19,1.29-2.05-0.35-2.82-1.09C96.41,173.17,94.1,170.8,91.76,168.46C91.76,168.46,91.76,168.46,91.76,168.46z"/>
		<path class="st62" d="M87.78,172.43c-2.14-2.14-4.29-4.29-6.43-6.43c-0.45-0.45-0.91-0.91-1.32-1.4c-0.38-0.45-0.57-1.02-0.18-1.5
			c0.51-0.62,1.16-0.42,1.7,0.01c0.43,0.34,0.82,0.74,1.2,1.13c4.55,4.54,9.11,9.08,13.63,13.65c0.72,0.72,2.21,1.58,1.23,2.64
			c-1.19,1.29-2.05-0.35-2.82-1.09C92.43,177.14,90.12,174.77,87.78,172.43C87.78,172.43,87.78,172.43,87.78,172.43z"/>
	</g>
	<g>
		<path class="st60" d="M141.33,157.57c-3.9-3.9-7.79-7.81-11.71-11.69c-0.67-0.67-1.48-1.96-2.46-1.06
			c-1.15,1.06,0.19,1.93,0.91,2.66c7.92,7.94,15.85,15.87,23.79,23.79c0.68,0.67,1.5,1.94,2.47,1.05c1.16-1.07-0.19-1.93-0.91-2.65
			C149.41,165.61,145.37,161.59,141.33,157.57C141.34,157.57,141.33,157.57,141.33,157.57z"/>
		<path class="st62" d="M136.35,163.64c3.32,3.32,6.64,6.64,9.96,9.96c0.7,0.7,1.41,1.41,2.15,2.07c0.67,0.6,1.46,1.01,1.96,0.64
			c0.65-0.48,0.22-1.36-0.48-2.17c-0.55-0.64-1.17-1.24-1.77-1.85c-7.04-7.05-14.07-14.11-21.14-21.13
			c-1.12-1.11-2.63-3.26-3.71-2.3c-1.31,1.16,1.01,2.71,2.16,3.9C129.07,156.42,132.73,160.02,136.35,163.64
			C136.35,163.64,136.35,163.64,136.35,163.64z"/>
		<path class="st60" d="M133.75,165.15c-3.9-3.9-7.79-7.81-11.71-11.69c-0.67-0.67-1.48-1.96-2.46-1.06
			c-1.15,1.06,0.19,1.93,0.91,2.66c7.92,7.94,15.85,15.87,23.79,23.79c0.68,0.67,1.5,1.94,2.47,1.05c1.16-1.07-0.19-1.93-0.91-2.65
			C141.83,173.2,137.79,169.18,133.75,165.15C133.75,165.15,133.75,165.15,133.75,165.15z"/>
		<path class="st62" d="M131.76,173.87c2.62,2.62,5.24,5.24,7.86,7.86c0.56,0.55,1.11,1.11,1.7,1.63c0.53,0.47,1.15,0.79,1.55,0.5
			c0.52-0.38,0.18-1.07-0.38-1.72c-0.43-0.51-0.92-0.98-1.4-1.46c-5.56-5.56-11.11-11.13-16.68-16.67
			c-0.88-0.88-2.07-2.57-2.93-1.81c-1.04,0.92,0.79,2.14,1.71,3.08C126.01,168.18,128.9,171.01,131.76,173.87
			C131.76,173.87,131.76,173.87,131.76,173.87z"/>
	</g>
	<path class="st76" d="M94.11,202.98c0.95,0.89,1.11,2.31,0.36,3.21c-0.75,0.91-2.33,1-3.21,0.18c-0.88-0.82-0.88-2.23-0.01-3.21
		C92.17,202.14,93.15,202.08,94.11,202.98z"/>
	<path class="st77" d="M100.13,209.04c0.79,0.73,0.89,2.16,0.21,3c-0.73,0.91-2.32,1.01-3.21,0.21c-0.88-0.79-0.88-2.37-0.01-3.2
		C97.94,208.29,99.32,208.29,100.13,209.04z"/>
	<path class="st78" d="M106.05,218.1c-0.86,0.83-2.46,0.75-3.21-0.14c-0.7-0.83-0.63-2.27,0.14-3.01c0.87-0.84,2.43-0.76,3.2,0.15
		C106.9,215.93,106.83,217.34,106.05,218.1z"/>
</g>
</svg>
